:SAMPLES-PER-SECOND 30
:FULLY-SPECIFIED
:DEGREES
1734
root  20.0998 37.5855 -20.7137 31.0229 74.5026 37.9002
RightUpLeg  -21.2284 -10.0194 -16.5942
RightLeg  64.265 2.97658 6.19101
RightFoot  -6.7473 -0.241125 4.84485
RightToes  9.54606e-009 0 -3.6325e-017
Spine  23.1707 1.32944 5.84942
Spine1  5.06324 2.2422 0.124082
HEad  -28.2756 -0.450592 -1.14273
LeftShoulder1  -0.272587 4.2047 -32.7673
LeftArm  -3.6948 -17.6443 -52.0304
LeftForeArm  27.8154 -7.67318 -8.23101
LeftHand  -0.0234324 7.58926 0.909601
RightShoulder  -0.618148 -5.22127 29.2458
RightArm  1.26868 5.98777 45.3778
RightForeArm  1.16594 8.99289 3.13966
RightHand  -0.673261 9.20714 -5.737
LeftUpLeg  -3.14481 12.9932 1.60715
LeftLeg  25.6823 -7.28202 -3.4688
LeftFoot  -12.6733 0.0226383 -4.60048
LeftToes  -8.26734e-010 9.74065e-011 1.64617e-011
1735
root  20.7068 37.8234 -20.048 28.3264 74.8003 34.8066
RightUpLeg  -21.7091 -8.77069 -17.2941
RightLeg  58.4207 1.49903 2.20322
RightFoot  -7.165 -0.158 2.9986
RightToes  9.54606e-009 0 -3.6325e-017
Spine  22.3002 0.688328 4.51792
Spine1  4.43035 1.1032 1.10861
HEad  -28.7524 2.03438 -1.07373
LeftShoulder1  -0.295183 4.26897 -32.3976
LeftArm  -2.56559 -25.0196 -55.7072
LeftForeArm  29.5653 -8.50303 -7.89005
LeftHand  -0.0440064 7.82071 -0.0738388
RightShoulder  -0.623102 -5.25109 28.926
RightArm  2.24454 2.3487 44.3829
RightForeArm  0.888923 9.40403 3.40972
RightHand  -0.679862 8.36309 -6.08617
LeftUpLeg  -0.544917 11.7303 3.31369
LeftLeg  22.1872 -6.57714 -2.59995
LeftFoot  -12.1264 0.0320424 -5.87199
LeftToes  -8.26734e-010 9.74065e-011 1.64617e-011
1736
root  21.279 37.9241 -19.2937 25.4667 75.1354 31.071
RightUpLeg  -21.7051 -7.14223 -17.7906
RightLeg  50.1673 -0.399741 -0.852731
RightFoot  -7.69817 -0.134774 2.65317
RightToes  9.54606e-009 0 -3.6325e-017
Spine  21.1768 0.190491 3.48929
Spine1  3.7477 0.222209 1.97067
HEad  -29.3393 3.51419 -1.48019
LeftShoulder1  -0.22856 4.12001 -31.0137
LeftArm  -1.60999 -30.9418 -60.0407
LeftForeArm  28.6676 -10.3314 -6.96065
LeftHand  -0.0254195 7.87287 0.767248
RightShoulder  -0.597017 -5.19132 28.6111
RightArm  4.15727 -1.34498 42.8076
RightForeArm  0.52392 10.3238 3.96261
RightHand  -0.784634 9.8226 -6.37369
LeftUpLeg  0.988142 10.7927 5.28751
LeftLeg  19.7878 -6.04464 -2.08446
LeftFoot  -11.9711 0.0332285 -6.93897
LeftToes  -8.26734e-010 9.74065e-011 1.64617e-011
1737
root  21.8795 37.8927 -18.4576 24.0633 75.1562 28.9138
RightUpLeg  -20.6163 -5.00024 -18.7669
RightLeg  40.2256 -2.10319 -2.20584
RightFoot  -7.61109 -0.173767 3.68763
RightToes  9.54606e-009 0 -3.6325e-017
Spine  20.1517 -0.191266 1.85194
Spine1  3.23216 -0.71452 3.3462
HEad  -29.9931 4.9901 -2.45901
LeftShoulder1  -0.27125 4.26334 -29.5625
LeftArm  2.20773 -35.8284 -63.5788
LeftForeArm  24.4518 -13.7778 -6.04592
LeftHand  -0.0153873 7.34768 1.36303
RightShoulder  -0.487899 -4.91472 27.7116
RightArm  6.11267 -4.44412 41.5001
RightForeArm  2.30887 10.8177 4.37729
RightHand  -0.658104 10.3433 -5.24497
LeftUpLeg  2.42865 8.73005 6.58213
LeftLeg  17.837 -4.35632 -1.22566
LeftFoot  -12.1741 0.00949092 -8.71392
LeftToes  -8.26734e-010 9.74065e-011 1.64617e-011
1738
root  22.5227 37.7638 -17.5 22.9485 74.8973 26.8145
RightUpLeg  -19.3425 -2.71663 -19.184
RightLeg  31.1513 -1.69962 -1.40269
RightFoot  -5.17625 -0.309497 5.11435
RightToes  9.54606e-009 0 -3.6325e-017
Spine  18.2836 -0.199037 0.228371
Spine1  3.63276 -1.36176 5.29979
HEad  -30.8986 5.54214 -3.86256
LeftShoulder1  -0.332774 4.45004 -28.9823
LeftArm  7.79573 -39.0892 -65.603
LeftForeArm  19.3185 -20.2254 -4.67671
LeftHand  -0.0189554 6.01361 2.15882
RightShoulder  -0.420786 -4.75042 26.8253
RightArm  7.09223 -7.32564 40.338
RightForeArm  3.91179 11.0206 4.4809
RightHand  -0.660965 10.2685 -5.29419
LeftUpLeg  3.7188 7.45196 8.00108
LeftLeg  16.1191 -3.2086 -0.548683
LeftFoot  -12.6543 -0.0476363 -10.6373
LeftToes  -8.26734e-010 9.74065e-011 1.64617e-011
1739
root  23.1936 37.5379 -16.42 18.9729 74.9509 21.7042
RightUpLeg  -19.0648 -3.99478 -17.2746
RightLeg  29.2299 1.76932 0.902489
RightFoot  -5.99446 -0.392141 7.32714
RightToes  9.54606e-009 0 -3.6325e-017
Spine  16.3228 -0.527809 0.61107
Spine1  3.85884 -1.7 5.72955
HEad  -31.4826 6.34061 -4.92566
LeftShoulder1  -0.308187 4.41218 -27.7542
LeftArm  7.71976 -39.9679 -66.0937
LeftForeArm  19.3948 -27.6259 -4.76952
LeftHand  -0.0450106 4.61552 3.32698
RightShoulder  -0.422269 -4.74755 27.0035
RightArm  7.5465 -9.54785 39.173
RightForeArm  5.1931 9.75764 4.51385
RightHand  -0.656832 9.53649 -5.48659
LeftUpLeg  4.56825 5.85076 10.4549
LeftLeg  15.4588 -1.83701 0.125483
LeftFoot  -13.5996 -0.173426 -12.8124
LeftToes  -8.26734e-010 9.74065e-011 1.64617e-011
1740
root  23.7553 37.3031 -15.3825 13.0337 74.5667 15.5151
RightUpLeg  -19.7992 -7.51103 -14.1073
RightLeg  33.3665 4.38148 2.83619
RightFoot  -9.39074 -0.146177 5.02019
RightToes  9.54606e-009 0 -3.6325e-017
Spine  15.8283 -0.770138 2.01252
Spine1  3.81561 -1.65078 5.66876
HEad  -32.1304 6.73016 -5.59424
LeftShoulder1  -0.323658 4.472 -27.2204
LeftArm  4.43671 -39.1055 -66.0721
LeftForeArm  21.3504 -34.0993 -6.37073
LeftHand  -0.0719628 3.94446 4.4521
RightShoulder  -0.443157 -4.79106 27.5086
RightArm  6.9538 -9.57004 38.7559
RightForeArm  6.26368 5.69965 4.27492
RightHand  -0.667164 9.32034 -5.65176
LeftUpLeg  5.64309 1.95301 12.4186
LeftLeg  16.1261 2.80759 1.56071
LeftFoot  -14.0617 -0.265214 -14.807
LeftToes  -8.26734e-010 9.74065e-011 1.64617e-011
1741
root  24.2542 37.3109 -14.4471 4.94781 73.9813 7.07935
RightUpLeg  -19.0307 -9.41449 -10.4991
RightLeg  33.923 6.14435 4.17787
RightFoot  -10.5174 -0.0934891 3.08732
RightToes  9.54606e-009 0 -3.6325e-017
Spine  15.7836 -1.00045 4.32162
Spine1  3.50768 -1.45737 5.75582
HEad  -32.3028 7.85159 -5.60901
LeftShoulder1  -0.300582 4.41358 -26.8272
LeftArm  2.30936 -36.6916 -65.6443
LeftForeArm  18.7229 -39.3063 -7.97551
LeftHand  -0.0812421 3.56659 4.13449
RightShoulder  -0.445838 -4.78935 27.7578
RightArm  6.23057 -8.43945 38.5982
RightForeArm  8.53433 1.73469 3.85113
RightHand  -0.471033 7.02141 -4.72698
LeftUpLeg  5.75135 -0.919516 14.7104
LeftLeg  18.4443 9.10894 3.68122
LeftFoot  -12.0271 -0.020308 -16.1631
LeftToes  -8.26734e-010 9.74065e-011 1.64617e-011
